# xmcd
#
# Track frame offsets: 
#        150
#        14466
#        30018
#        43155
#        62632
#        79863
#        91516
#        109297
#        121116
#        135444
#        151283
#        165289
#        181763
#        195488
#
# Disc length: 2869 seconds
#
# Revision: 0
# Processed by: cddbd v1.5.2PL0 Copyright (c) Steve Scherf et al.
# Submitted via: ExactAudioCopy v0.99pb5
#
DISCID=980b330e
DTITLE=David Peterson and 1946 - In the Mountaintops to Roam
DYEAR=2005
DGENRE=Bluegrass
TTITLE0=I'll Still Write Your Name in the Sand
TTITLE1=Some of These Days (You're Gonna Be Sad)
TTITLE2=Careless Love
TTITLE3=In the Mountaintops To Roam
TTITLE4=A Good Woman's Love
TTITLE5=In Despair
TTITLE6=Put Me On The Trail to Carolina
TTITLE7=Prayin' Shoes
TTITLE8=Bluebirds are Singing for Me
TTITLE9=Fool's Moon
TTITLE10=1946
TTITLE11=You'll Find Her Name Written There
TTITLE12=The Golden Rocket
TTITLE13=Red Rockin' Chair
EXTD=
EXTT0=
EXTT1=
EXTT2=
EXTT3=
EXTT4=
EXTT5=
EXTT6=
EXTT7=
EXTT8=
EXTT9=
EXTT10=
EXTT11=
EXTT12=
EXTT13=
PLAYORDER=
